<svg xmlns="http://www.w3.org/2000/svg" aria-hidden="true" style="width:0;height:0;position:absolute;overflow:hidden"><defs><symbol id="icon-book-shop" viewBox="0 0 30 32"><path d="M14.607 8.376c-.056.024-.489.228-1.541.732-.729.35-2.797 1.401-3.159 1.606-.249.142-.406.364-.504.726-.041.145-.053.302-.053.679 0 .427.012.53.08.815.077.32.136.85.243 2.133.05.637.08.794.104.572l.015-.139 2.43 1.247c1.336.684 2.447 1.25 2.468 1.259.024.012.036-.021.036-.098v-.116l-.364-.184c-.199-.104-1.307-.67-2.465-1.262l-2.101-1.079-.006-.11c-.003-.059 0-.107.009-.107.021 0 4.056 2.062 4.596 2.347l.335.178-.009-.124-.009-.121-.326-.172c-.178-.095-.812-.421-1.407-.726-.596-.302-1.559-.794-2.139-1.093L9.779 14.8v-.127c0-.068.006-.124.015-.124.015 0 .785.394 3.541 1.807.628.323 1.197.613 1.268.649l.127.065-.018-.243-1.185-.607c-.652-.335-1.618-.83-2.148-1.099s-1.099-.563-1.265-.652l-.305-.163v-.261l.246.121c.323.163 3.914 2 4.341 2.222l.332.172v-.116c0-.11-.009-.121-.139-.193-.172-.089-2.178-1.117-3.704-1.896l-1.099-.56-.015-.121a1.463 1.463 0 0 0-.039-.187c-.018-.059.397.139 2.539 1.215l2.56 1.283.11.222c.16.32.213.628.193 1.111-.015.406-.107.791-.222.933l-.053.065-2.527-1.265c-1.39-.693-2.533-1.256-2.542-1.247-.027.027.083.16.193.234.231.154 4.406 2.249 4.622 2.32.243.077.4.047.738-.139.16-.089.35-.187.424-.219a155.4 155.4 0 0 0 2.095-1.025c1.644-.815 1.982-.993 2.092-1.099.237-.237.338-.548.367-1.12.021-.471-.015-.693-.19-1.191l-.136-.394-.021-1.022c-.015-.836-.027-1.04-.065-1.126l-.047-.104.03.308-5.043 2.521v.104c0 .056.006.104.015.104s1.135-.56 2.504-1.244c1.369-.684 2.495-1.244 2.504-1.244s.015.059.015.133v.133l-5.037 2.519v.104c0 .056.015.104.03.104.018 0 1.15-.56 2.516-1.241l2.486-1.244.021.273c.024.344.015.551-.027.539-.018-.006-1.153.551-2.521 1.239l-2.489 1.25-.009.11c-.006.062-.003.113.006.113s1.144-.563 2.521-1.25c2.234-1.12 2.504-1.259 2.513-1.327.006-.041.015-.006.018.074 0 .095.03.201.08.296l.08.148-.077-.068-.074-.068-5.099 2.551-.077-.127c-.326-.557-.326-1.612-.003-2.163l.08-.142 2.519-1.256c2.421-1.212 2.516-1.262 2.48-1.321-.077-.127-.471-.376-.957-.604-.279-.13-.91-.439-1.407-.684-2.631-1.304-2.361-1.182-2.593-1.188-.113-.003-.228 0-.252.012zm-4.317 3.535c.314.169.397.234.453.373.056.136.05.228-.021.317l-.059.077.065.089c.044.059.065.13.065.234.006.293-.11.311-.557.089l-.311-.157v-.11c0-.083.012-.107.041-.095.059.024.083-.696.027-.747-.047-.039-.05-.219-.006-.219.018 0 .154.065.302.148zm1.103.53a.828.828 0 0 1 .394.415c.059.127.074.21.074.4.003.237-.024.329-.121.439-.071.083-.267.068-.424-.03-.172-.113-.216-.166-.311-.373a.82.82 0 0 1-.08-.403c-.003-.255.056-.4.19-.465.095-.05.139-.047.279.018zm1.146.593c.267.169.379.4.379.785 0 .261-.053.394-.181.462-.172.095-.551-.16-.679-.45-.13-.296-.086-.756.08-.85.098-.056.258-.036.4.053zm.972.572c0 .077-.033.142-.062.124-.015-.009-.027.044-.027.119s.006.136.012.136c.009 0 .062-.03.124-.065.095-.056.101-.068.059-.098-.041-.033-.071-.222-.033-.222.009 0 .11.047.222.104.199.101.207.11.207.21 0 .08-.012.104-.041.092-.021-.009-.083.009-.133.041-.11.065-.11.041.044.456.056.145.119.281.145.299.047.036.059.121.021.181-.018.027-.089.003-.267-.089-.228-.119-.243-.13-.243-.222 0-.062.015-.095.041-.095.039 0 .039-.021-.003-.142-.056-.169-.074-.19-.136-.166-.056.021-.074.219-.021.219.018 0 .03.053.03.119v.119l-.207-.104c-.199-.101-.207-.11-.207-.207 0-.071.015-.104.041-.104.059 0 .083-.673.027-.744-.039-.044-.053-.181-.024-.21.033-.03.43.199.43.249zm6.202.788c.175.193.021.596-.287.761-.098.053-.107.068-.107.199 0 .104.009.136.039.124.03-.009.039.018.039.098-.003.11-.012.116-.219.225l-.213.113v-.116c0-.062.012-.124.027-.142.015-.015.033-.204.041-.421.015-.335.009-.394-.027-.379-.033.012-.041-.012-.041-.101 0-.116.003-.119.216-.225.216-.11.394-.184.453-.187.018-.003.053.021.08.05zm-1.04.483c.095.05.142.21.142.468 0 .379-.142.69-.388.853-.133.089-.359.124-.43.068-.095-.08-.133-.207-.133-.441 0-.412.181-.75.474-.901.175-.086.243-.098.335-.047zm-.987.619c-.021.015-.039.163-.05.43-.012.373-.009.409.036.391.039-.015.047 0 .047.092 0 .11-.006.113-.222.222l-.222.11v-.119c0-.08.015-.127.044-.136.05-.021.065-.279.015-.279a.708.708 0 0 0-.133.05c-.098.047-.104.059-.104.193 0 .113.009.136.044.124.036-.015.044.006.044.098 0 .113-.003.116-.222.225l-.222.11v-.113c0-.062.012-.124.027-.142.015-.015.033-.201.039-.412.006-.296 0-.382-.027-.379-.027.006-.039-.03-.039-.11 0-.116.003-.119.207-.222.113-.056.213-.104.222-.104s.015.053.015.116c0 .074-.015.121-.044.133s-.044.059-.044.151c0 .074.006.133.015.133s.071-.027.133-.059c.113-.056.119-.068.119-.196 0-.11-.009-.133-.044-.119-.036.012-.044-.009-.044-.101 0-.116 0-.119.216-.216l.213-.098.009.101c.006.059-.006.113-.027.124zm-1.123.557v.231l-.11.053c-.074.036-.116.041-.121.021a.14.14 0 0 0-.273.044c0 .039.018.071.039.071.379.015.382.015.439.086a.307.307 0 0 1 .056.175c0 .305-.385.679-.59.569-.053-.027-.062-.021-.08.044-.018.071-.142.163-.219.163-.018 0-.03-.086-.03-.216v-.216l.13-.062c.127-.062.13-.062.145-.006.021.074.113.071.21-.006.136-.107.104-.145-.127-.145-.145 0-.219-.015-.252-.044-.172-.172-.018-.619.261-.753.151-.074.178-.077.237-.015.044.041.047.039.047-.03 0-.056.027-.089.113-.133.059-.033.113-.059.119-.062.003 0 .006.104.006.231z"/><path d="M10.317 12.287c.009.119.018.142.074.151.13.018.113-.19-.024-.261-.056-.033-.059-.027-.05.11zm-.03.46c.009.139.018.16.089.184.101.036.121.015.119-.107a.198.198 0 0 0-.086-.163c-.044-.039-.095-.068-.107-.068s-.021.071-.015.154zm1.002.023c-.041.074-.044.433-.006.533a.407.407 0 0 0 .08.119c.044.039.056.036.107-.027.074-.089.08-.465.012-.596-.053-.104-.145-.116-.193-.03zm1.061.54a.897.897 0 0 0-.036.276c0 .249.065.397.178.4.116 0 .136-.56.03-.679-.074-.08-.124-.08-.172.003zm7.016 1.366c-.039.03-.05.071-.041.196l.009.157.08-.062c.092-.074.133-.222.083-.284-.044-.053-.062-.056-.13-.006zm-1.067.548c-.068.08-.107.228-.107.427 0 .213.039.32.116.32.092 0 .16-.163.172-.415.015-.305-.065-.456-.181-.332zm-.96-1.704-2.498 1.25.009.098c.006.053.018.095.033.095.012 0 1.141-.56 2.51-1.244l2.489-1.244v-.104c0-.056-.009-.104-.021-.101-.015 0-1.147.563-2.521 1.25z"/></symbol><symbol id="icon-logo-fix" viewBox="0 0 126 32"><path fill="#f6f6f6" d="m0 2.286 14.008 13.861 13.42 13.567V2.285H-.001z" style="fill:var(--color1,#f6f6f6)"/><path fill="#f6f6f6" d="m3.82 5.91 10.237 10.139 9.649 9.845H3.82V5.91z" style="fill:var(--color1,#f6f6f6)"/><path fill="#4f2ee8" d="M23.771 25.959 13.534 15.82 3.885 5.975h19.886v19.984z" style="fill:var(--color2,#4f2ee8)"/><path fill="#4f2ee8" d="m7.935 10.024 11.657 11.657H7.935V10.024z" style="fill:var(--color2,#4f2ee8)"/><path fill="#f6f6f6" d="m7.935 10.024 11.657 11.657V10.024H7.935z" style="fill:var(--color1,#f6f6f6)"/><path d="M47.659 12.266c0-2.366-1.749-3.703-4.773-3.703h-6.315v14.709h6.665c3.045 0 4.999-1.461 4.999-4.299 0-2.201-1.317-3.333-2.859-3.6v-.041c1.214-.411 2.283-1.255 2.283-3.065zm-8.64 2.387v-4.011h3.929c1.461 0 2.263.72 2.263 2.016s-.658 1.995-2.407 1.995h-3.785zm0 1.83h4.299c1.543 0 2.469.843 2.469 2.345 0 1.378-.638 2.366-2.736 2.366h-4.032v-4.711zm15.497 7.098c-3.291 0-5.287-2.283-5.287-5.554s1.995-5.554 5.287-5.554c3.291 0 5.287 2.283 5.287 5.554s-1.995 5.554-5.287 5.554zm0-1.77c2.057 0 3.127-1.625 3.127-3.785 0-2.181-1.07-3.785-3.127-3.785s-3.127 1.605-3.127 3.785c0 2.16 1.07 3.785 3.127 3.785zm11.511 1.77c-3.291 0-5.287-2.283-5.287-5.554s1.995-5.554 5.287-5.554c3.291 0 5.287 2.283 5.287 5.554s-1.995 5.554-5.287 5.554zm0-1.77c2.057 0 3.127-1.625 3.127-3.785 0-2.181-1.07-3.785-3.127-3.785S62.9 15.846 62.9 18.026c0 2.16 1.07 3.785 3.127 3.785zm6.78-13.248v14.709h2.16v-3.806l1.461-1.378 3.312 5.184h2.592l-4.423-6.603L81.9 12.76h-2.654l-4.279 4.217V8.563h-2.16zm14.732 8.352c-1.522-.35-2.695-.432-2.695-1.502 0-.741.699-1.234 1.995-1.234 1.687 0 2.098.843 2.242 1.666h2.098c-.144-1.831-1.502-3.374-4.361-3.374-2.633 0-4.155 1.378-4.155 3.106 0 2.386 2.263 2.715 3.929 3.106 1.543.37 2.798.473 2.798 1.79 0 .658-.638 1.399-2.139 1.399-2.222 0-2.715-.967-2.818-2.098h-2.098c.103 2.222 1.563 3.806 4.958 3.806 2.551 0 4.279-1.255 4.279-3.271 0-2.51-2.098-2.942-4.032-3.394zm11.094-4.443c-1.769 0-2.859.823-3.415 1.646h-.041V8.564h-2.16v14.709h2.16v-6.398c0-1.563 1.131-2.571 2.715-2.571 1.502 0 2.098.905 2.098 2.325v6.645h2.181v-7.262c0-2.407-1.543-3.538-3.538-3.538zm10.163 9.339c-1.913 0-3.045-1.461-3.045-3.23h8.064c0-3.744-1.666-6.11-5.061-6.11-3.168 0-5.163 2.139-5.163 5.554 0 3.291 1.995 5.554 5.266 5.554 2.695 0 4.258-1.522 4.793-3.518h-2.16c-.185.638-.905 1.749-2.695 1.749zm-.042-7.632c1.749 0 2.901 1.173 2.901 2.798h-5.904c0-1.625 1.255-2.798 3.003-2.798zm6.583-5.616v14.709h2.181V8.563h-2.181zm9.236 1.77V8.564a7.6 7.6 0 0 0-1.44-.144c-1.728 0-2.674.782-2.674 3.003v1.337h-1.502v1.769h1.502v8.743h2.181v-8.743h1.934V12.76h-1.934v-1.152c0-1.193.535-1.337 1.934-1.275z" style="fill:var(--color3,#000)"/></symbol><symbol id="icon-logo-dark-theme" viewBox="0 0 126 32"><path fill="#f6f6f6" d="m0 2.286 14.008 13.861 13.42 13.567V2.285H-.001z" style="fill:var(--color1,#f6f6f6)"/><path fill="#f6f6f6" d="m3.82 5.91 10.237 10.139 9.649 9.845H3.82V5.91z" style="fill:var(--color1,#f6f6f6)"/><path fill="#4f2ee8" d="M23.771 25.959 13.534 15.82 3.885 5.975h19.886v19.984z" style="fill:var(--color2,#4f2ee8)"/><path fill="#4f2ee8" d="m7.935 10.024 11.657 11.657H7.935V10.024z" style="fill:var(--color2,#4f2ee8)"/><path fill="#f6f6f6" d="m7.935 10.024 11.657 11.657V10.024H7.935z" style="fill:var(--color1,#f6f6f6)"/><path fill="#f3f3f3" d="M47.659 12.266c0-2.366-1.749-3.703-4.773-3.703h-6.315v14.709h6.665c3.045 0 4.999-1.461 4.999-4.299 0-2.201-1.317-3.333-2.859-3.6v-.041c1.214-.411 2.283-1.255 2.283-3.065zm-8.64 2.387v-4.011h3.929c1.461 0 2.263.72 2.263 2.016s-.658 1.995-2.407 1.995h-3.785zm0 1.83h4.299c1.543 0 2.469.843 2.469 2.345 0 1.378-.638 2.366-2.736 2.366h-4.032v-4.711zm15.497 7.098c-3.291 0-5.287-2.283-5.287-5.554s1.995-5.554 5.287-5.554c3.291 0 5.287 2.283 5.287 5.554s-1.995 5.554-5.287 5.554zm0-1.77c2.057 0 3.127-1.625 3.127-3.785 0-2.181-1.07-3.785-3.127-3.785s-3.127 1.605-3.127 3.785c0 2.16 1.07 3.785 3.127 3.785zm11.511 1.77c-3.291 0-5.287-2.283-5.287-5.554s1.995-5.554 5.287-5.554c3.291 0 5.287 2.283 5.287 5.554s-1.995 5.554-5.287 5.554zm0-1.77c2.057 0 3.127-1.625 3.127-3.785 0-2.181-1.07-3.785-3.127-3.785S62.9 15.846 62.9 18.026c0 2.16 1.07 3.785 3.127 3.785zm6.78-13.248v14.709h2.16v-3.806l1.461-1.378 3.312 5.184h2.592l-4.423-6.603L81.9 12.76h-2.654l-4.279 4.217V8.563h-2.16zm14.732 8.352c-1.522-.35-2.695-.432-2.695-1.502 0-.741.699-1.234 1.995-1.234 1.687 0 2.098.843 2.242 1.666h2.098c-.144-1.831-1.502-3.374-4.361-3.374-2.633 0-4.155 1.378-4.155 3.106 0 2.386 2.263 2.715 3.929 3.106 1.543.37 2.798.473 2.798 1.79 0 .658-.638 1.399-2.139 1.399-2.222 0-2.715-.967-2.818-2.098h-2.098c.103 2.222 1.563 3.806 4.958 3.806 2.551 0 4.279-1.255 4.279-3.271 0-2.51-2.098-2.942-4.032-3.394zm11.094-4.443c-1.769 0-2.859.823-3.415 1.646h-.041V8.564h-2.16v14.709h2.16v-6.398c0-1.563 1.131-2.571 2.715-2.571 1.502 0 2.098.905 2.098 2.325v6.645h2.181v-7.262c0-2.407-1.543-3.538-3.538-3.538zm10.163 9.339c-1.913 0-3.045-1.461-3.045-3.23h8.064c0-3.744-1.666-6.11-5.061-6.11-3.168 0-5.163 2.139-5.163 5.554 0 3.291 1.995 5.554 5.266 5.554 2.695 0 4.258-1.522 4.793-3.518h-2.16c-.185.638-.905 1.749-2.695 1.749zm-.042-7.632c1.749 0 2.901 1.173 2.901 2.798h-5.904c0-1.625 1.255-2.798 3.003-2.798zm6.583-5.616v14.709h2.181V8.563h-2.181zm9.236 1.77V8.564a7.6 7.6 0 0 0-1.44-.144c-1.728 0-2.674.782-2.674 3.003v1.337h-1.502v1.769h1.502v8.743h2.181v-8.743h1.934V12.76h-1.934v-1.152c0-1.193.535-1.337 1.934-1.275z" style="fill:var(--color4,#f3f3f3)"/></symbol><symbol id="icon-book" viewBox="0 0 32 32"><path fill="#fb8c00" d="M8.722 28h14.556A4.722 4.722 0 0 0 28 23.278V8.722A4.722 4.722 0 0 0 23.278 4H8.722A4.722 4.722 0 0 0 4 8.722v14.556A4.722 4.722 0 0 0 8.722 28z" style="fill:var(--color5,#fb8c00)"/><path fill="#fff" d="M15.333 22.667c-1.565-2.903-5.333-3.333-8-.667V11.333c2.667-2.667 6-2 8 0v11.333zm1.334 0c1.565-2.903 5.333-3.333 8-.667V11.333c-2.667-2.667-6-2-8 0v11.333z" style="fill:var(--color6,#fff)"/></symbol><symbol id="icon-Amazon_logo" viewBox="0 0 106 32"><path fill="#f90" d="M65.759 24.999c-6.154 4.536-15.073 6.956-22.753 6.956-10.768 0-20.462-3.983-27.796-10.607-.576-.521-.06-1.231.631-.825 7.915 4.605 17.701 7.375 27.809 7.375 6.818 0 14.317-1.411 21.213-4.338 1.042-.443 1.913.682.894 1.438z" style="fill:var(--color7,#f90)"/><path fill="#f90" d="M68.318 22.072c-.784-1.005-5.2-.475-7.182-.24-.604.074-.696-.452-.152-.83 3.517-2.475 9.288-1.761 9.961-.931.673.834-.175 6.619-3.48 9.38-.507.424-.991.198-.765-.364.742-1.853 2.406-6.006 1.618-7.016z" style="fill:var(--color7,#f90)"/><path fill="#221f1f" d="M61.274 3.528V1.122c0-.364.277-.608.608-.608h10.773c.346 0 .622.249.622.608v2.06c-.005.346-.295.797-.811 1.512l-5.582 7.97c2.074-.051 4.264.258 6.145 1.318.424.24.539.59.572.936v2.568c0 .35-.387.761-.793.549-3.314-1.738-7.716-1.927-11.381.018-.373.203-.765-.203-.765-.553v-2.438c0-.392.005-1.06.396-1.655l6.467-9.274h-5.628c-.346 0-.622-.244-.622-.604zM21.978 18.541h-3.277a.619.619 0 0 1-.585-.558V1.163c0-.337.281-.604.631-.604h3.056a.618.618 0 0 1 .595.562V3.32h.06c.797-2.125 2.296-3.116 4.315-3.116 2.051 0 3.333.991 4.255 3.116.793-2.125 2.595-3.116 4.527-3.116 1.374 0 2.876.567 3.794 1.839 1.037 1.415.825 3.471.825 5.273l-.005 10.616a.618.618 0 0 1-.632.608h-3.273a.623.623 0 0 1-.59-.608V9.017c0-.71.065-2.48-.092-3.153-.244-1.129-.977-1.447-1.927-1.447-.793 0-1.623.53-1.959 1.378s-.304 2.268-.304 3.222v8.915a.618.618 0 0 1-.631.608h-3.273a.62.62 0 0 1-.59-.608l-.005-8.915c0-1.876.309-4.637-2.019-4.637-2.355 0-2.263 2.692-2.263 4.637v8.915a.618.618 0 0 1-.631.608zM82.552.205c4.863 0 7.495 4.176 7.495 9.486 0 5.13-2.909 9.201-7.495 9.201-4.775 0-7.375-4.176-7.375-9.38 0-5.236 2.632-9.307 7.375-9.307zm.028 3.434c-2.415 0-2.568 3.291-2.568 5.342 0 2.056-.032 6.444 2.54 6.444 2.54 0 2.66-3.54 2.66-5.697 0-1.42-.06-3.116-.489-4.462-.369-1.171-1.102-1.627-2.143-1.627zm13.773 14.902h-3.264a.623.623 0 0 1-.59-.608l-.005-16.825a.62.62 0 0 1 .632-.549h3.038a.626.626 0 0 1 .585.47v2.572h.06c.917-2.3 2.203-3.397 4.467-3.397 1.47 0 2.904.53 3.826 1.982.857 1.346.857 3.609.857 5.236V18.01c-.037.295-.309.53-.632.53h-3.287c-.3-.023-.549-.244-.581-.53V8.874c0-1.839.212-4.531-2.051-4.531-.797 0-1.53.535-1.895 1.346-.461 1.028-.521 2.051-.521 3.185v9.058a.63.63 0 0 1-.641.608zm-43.666-8.034v-.71c-2.369 0-4.872.507-4.872 3.3 0 1.415.733 2.374 1.991 2.374.922 0 1.747-.567 2.268-1.489.645-1.134.613-2.199.613-3.476zm3.305 7.988a.683.683 0 0 1-.774.078c-1.088-.903-1.281-1.323-1.881-2.185-1.798 1.835-3.07 2.383-5.402 2.383-2.757 0-4.905-1.701-4.905-5.107 0-2.66 1.443-4.471 3.494-5.356 1.779-.784 4.264-.922 6.163-1.139v-.424c0-.779.06-1.701-.396-2.374-.401-.604-1.166-.853-1.839-.853-1.249 0-2.365.641-2.637 1.968-.055.295-.272.585-.567.599l-3.181-.341c-.267-.06-.562-.277-.489-.687.733-3.854 4.213-5.015 7.329-5.015 1.595 0 3.678.424 4.937 1.632 1.595 1.489 1.443 3.476 1.443 5.638v5.107c0 1.535.636 2.208 1.235 3.038.212.295.258.65-.009.871a138.67 138.67 0 0 0-2.512 2.176l-.009-.009zM9.721 10.507v-.71c-2.369 0-4.872.507-4.872 3.3 0 1.415.733 2.374 1.991 2.374.922 0 1.747-.567 2.268-1.489.645-1.134.613-2.199.613-3.476zm3.305 7.988a.683.683 0 0 1-.774.078c-1.088-.903-1.281-1.323-1.881-2.185-1.798 1.835-3.07 2.383-5.402 2.383-2.756 0-4.905-1.701-4.905-5.107 0-2.66 1.443-4.471 3.494-5.356 1.779-.784 4.264-.922 6.163-1.139v-.424c0-.779.06-1.701-.396-2.374-.401-.604-1.166-.853-1.839-.853-1.249 0-2.365.641-2.637 1.968-.055.295-.272.585-.567.599l-3.181-.341c-.267-.06-.562-.277-.489-.687C1.345 1.203 4.825.042 7.941.042c1.595 0 3.678.424 4.937 1.632 1.595 1.489 1.443 3.476 1.443 5.638v5.107c0 1.535.636 2.208 1.235 3.038.212.295.258.65-.009.871a138.67 138.67 0 0 0-2.512 2.176l-.009-.009z" style="fill:var(--color8,#221f1f)"/></symbol><symbol id="icon-book-32px" viewBox="0 0 34 32"><path fill="#4f2ee8" d="M33.311 7.713a15.859 15.859 0 0 0-2.281-1.001v19.742a15.182 15.182 0 0 0-5.43-1.017c-2.948 0-5.865.886-8.533 2.593V8.174c-2.514-1.526-5.415-2.429-8.533-2.429A16.2 16.2 0 0 0 .823 7.714c-.512.263-.822.837-.822 1.444v19.824c0 .952.729 1.625 1.552 1.625.248 0 .496-.066.745-.197 1.877-1.034 3.987-1.69 6.237-1.69 3.212 0 6.175 1.346 8.533 3.282 2.358-1.936 5.322-3.282 8.533-3.282 2.25 0 4.36.656 6.237 1.707.248.131.496.197.745.197.807 0 1.551-.673 1.551-1.625V9.159c0-.607-.31-1.182-.822-1.444zm-19.347 18.74c-1.769-.673-3.584-1.017-5.43-1.017s-3.662.345-5.43 1.017V10.19a13.166 13.166 0 0 1 5.43-1.165c1.862 0 3.708.41 5.43 1.182v16.246zM27.927 0l-7.758 8.205v15.59l7.758-7.385V0z" style="fill:var(--color2,#4f2ee8)"/></symbol><symbol id="icon-book-60px" viewBox="0 0 36 32"><path fill="#4f2ee8" d="M34.699 7.713a16.911 16.911 0 0 0-2.376-1.001v19.741a16.395 16.395 0 0 0-5.657-1.017c-3.071 0-6.109.886-8.889 2.593V8.173c-2.618-1.526-5.64-2.429-8.889-2.429-2.893 0-5.624.722-8.032 1.969-.533.263-.857.837-.857 1.444v19.824c0 .952.76 1.625 1.616 1.625.259 0 .517-.066.776-.197 1.956-1.034 4.154-1.69 6.497-1.69 3.345 0 6.432 1.346 8.889 3.282 2.457-1.936 5.543-3.282 8.889-3.282 2.343 0 4.541.656 6.497 1.707.259.131.517.197.776.197.84 0 1.616-.673 1.616-1.625V9.158c0-.607-.323-1.181-.857-1.444zm-20.154 18.74c-1.842-.673-3.733-1.017-5.657-1.017s-3.814.345-5.657 1.017V10.19a14.205 14.205 0 0 1 5.657-1.165c1.939 0 3.863.41 5.657 1.181v16.246zM29.091 0 21.01 8.205v15.59l8.081-7.385V0z" style="fill:var(--color2,#4f2ee8)"/></symbol><symbol id="icon-book-88px" viewBox="0 0 35 32"><path fill="#4f2ee8" d="M34.352 7.713A16.665 16.665 0 0 0 32 6.712v19.742a16.089 16.089 0 0 0-5.6-1.017c-3.04 0-6.048.886-8.8 2.593V8.174c-2.592-1.526-5.584-2.429-8.8-2.429-2.864 0-5.568.722-7.952 1.969C.32 7.977 0 8.551 0 9.158v19.824a1.6 1.6 0 0 0 1.6 1.625c.256 0 .512-.066.768-.197 1.936-1.034 4.112-1.69 6.432-1.69 3.312 0 6.368 1.346 8.8 3.282 2.432-1.936 5.488-3.282 8.8-3.282 2.32 0 4.496.656 6.432 1.707.256.131.512.197.768.197.832 0 1.6-.673 1.6-1.625V9.159c0-.607-.32-1.182-.848-1.444zM14.4 26.453c-1.824-.673-3.696-1.017-5.6-1.017s-3.776.345-5.6 1.017V10.19a13.941 13.941 0 0 1 5.6-1.165c1.92 0 3.824.41 5.6 1.182v16.246zM28.8 0l-8 8.205v15.59l8-7.385V0z" style="fill:var(--color2,#4f2ee8)"/></symbol><symbol id="icon-book-44px" viewBox="0 0 35 32"><path fill="#4f2ee8" d="M34.352 7.713A16.665 16.665 0 0 0 32 6.712v19.742a16.089 16.089 0 0 0-5.6-1.017c-3.04 0-6.048.886-8.8 2.593V8.174c-2.592-1.526-5.584-2.429-8.8-2.429-2.864 0-5.568.722-7.952 1.969C.32 7.977 0 8.551 0 9.158v19.824a1.6 1.6 0 0 0 1.6 1.625c.256 0 .512-.066.768-.197 1.936-1.034 4.112-1.69 6.432-1.69 3.312 0 6.368 1.346 8.8 3.282 2.432-1.936 5.488-3.282 8.8-3.282 2.32 0 4.496.656 6.432 1.707.256.131.512.197.768.197.832 0 1.6-.673 1.6-1.625V9.159c0-.607-.32-1.182-.848-1.444zM14.4 26.453c-1.824-.673-3.696-1.017-5.6-1.017s-3.776.345-5.6 1.017V10.19a13.941 13.941 0 0 1 5.6-1.165c1.92 0 3.824.41 5.6 1.182v16.246zM28.8 0l-8 8.205v15.59l8-7.385V0z" style="fill:var(--color2,#4f2ee8)"/></symbol><symbol id="icon-shop" viewBox="0 0 32 32"><path d="M25.333 9.333h-4V8a5.332 5.332 0 1 0-10.666 0v1.333h-4a1.335 1.335 0 0 0-1.334 1.334v14.667a4.003 4.003 0 0 0 4 4h13.333a4.003 4.003 0 0 0 4-4V10.667a1.335 1.335 0 0 0-1.334-1.334zM13.333 8a2.668 2.668 0 0 1 5.334 0v1.333h-5.333V8zM24 25.333a1.333 1.333 0 0 1-1.333 1.334H9.334A1.335 1.335 0 0 1 8 25.333V12h2.667v1.333a1.333 1.333 0 1 0 2.667 0V12h5.333v1.333a1.335 1.335 0 0 0 2.277.943c.25-.251.391-.589.391-.943V12h2.667v13.333z"/></symbol><symbol id="icon-arrow-down" viewBox="0 0 28 32"><path fill="#fff" d="M5.898 12h16.513l-7.423 8.391c-.221.25-.521.39-.834.39s-.613-.14-.834-.39L5.898 12z" style="fill:var(--color6,#fff)"/></symbol><symbol id="icon-slider-up" viewBox="0 0 32 32"><path fill="#4f2ee8" d="M32 16c0 8.837-7.163 16-16 16S0 24.837 0 16 7.163 0 16 0s16 7.163 16 16z" opacity=".3" style="fill:var(--color2,#4f2ee8)"/><path fill="#4f2ee8" d="M29.5 16c0 7.456-6.044 13.5-13.5 13.5S2.5 23.456 2.5 16 8.544 2.5 16 2.5 29.5 8.544 29.5 16z" style="fill:var(--color2,#4f2ee8)"/><path fill="#fff" d="m11.687 17.35 4.2-4.213c.05-.05.104-.085.162-.106s.121-.031.188-.031.129.011.188.031.113.056.163.106L20.8 17.35c.117.117.175.262.175.438s-.063.325-.188.45a.6.6 0 0 1-.876 0l-3.675-3.675-3.675 3.675c-.117.117-.26.175-.431.175s-.319-.063-.444-.188a.6.6 0 0 1 0-.876z" style="fill:var(--color6,#fff)"/></symbol><symbol id="icon-arrow-narrow-right" viewBox="0 0 32 32"><path fill="none" stroke="#eac645" stroke-linecap="round" stroke-linejoin="round" stroke-width="3.2" d="M5.333 16h21.333m.001 0-8-8m8 8-8 8" style="stroke:var(--color9,#eac645)"/></symbol><symbol id="icon-burger" viewBox="0 0 32 32"><path stroke-linecap="round" stroke-linejoin="round" stroke-width="2.286" d="M22.667 13.333H4M28 8H4m24 10.667H4M22.667 24H4"/></symbol><symbol id="icon-slider-down" viewBox="0 0 32 32"><path fill="#fff" d="M16 32C7.163 32 0 24.837 0 16S7.163 0 16 0s16 7.163 16 16-7.163 16-16 16z" style="fill:var(--color6,#fff)"/><path fill="#4f2ee8" d="M15.408 17.167a.818.818 0 0 0 .592.247.83.83 0 0 0 .591-.247l3.817-3.825a.84.84 0 0 1 .591-.246.835.835 0 0 1 .591 1.422l-3.825 3.825a2.5 2.5 0 0 1-3.534 0l-3.825-3.825a.834.834 0 0 1 1.183-1.175l3.817 3.825z" style="fill:var(--color2,#4f2ee8)"/></symbol><symbol id="icon-dump" viewBox="0 0 32 32"><path fill="#4f2ee8" d="M32 16c0 8.837-7.163 16-16 16S0 24.837 0 16 7.163 0 16 0s16 7.163 16 16z" style="fill:var(--color2,#4f2ee8)"/><path fill="none" stroke="#fff" stroke-linecap="round" stroke-linejoin="round" stroke-width="1.684" d="M13.684 9.053h4.632m-9.263 2.315h13.895m-1.544 0-.541 8.12c-.081 1.218-.122 1.827-.385 2.289a2.322 2.322 0 0 1-1.002.938c-.478.232-1.089.232-2.31.232h-2.33c-1.221 0-1.832 0-2.31-.232a2.31 2.31 0 0 1-1.002-.938c-.263-.462-.304-1.071-.385-2.289l-.541-8.12m3.858 3.474v3.86m3.088-3.86v3.86" style="stroke:var(--color6,#fff)"/></symbol><symbol id="icon-Gerb" viewBox="0 0 20 32"><path fill="#fff" d="M9.005 30.888a8.64 8.64 0 0 1-3.414-5.351H0V2.42c2.991 1.443 5.153 4.599 5.388 7.876l.846 6.493-.407-.045c-.893 0-1.676.812-1.676 1.608 0 .752.595 1.383 1.378 1.548l1.018.226c1.676-3.051 2.631-6.042 2.631-8.973 0-2.645-.36-5.291-.423-7.996 0-1.202.486-2.3 1.253-3.156.783.857 1.253 1.954 1.253 3.156 0 2.705-.423 5.351-.423 7.996 0 2.931.955 5.922 2.631 8.973l1.018-.226c.783-.165 1.378-.812 1.378-1.548 0-.812-.783-1.608-1.676-1.608l-.423.06.846-6.493c.423-3.277 2.396-6.448 5.388-7.876v23.117h-5.576c-.423 2.179-1.613 4.148-3.414 5.351-.423.286-.783.631-1.018 1.097-.219-.466-.579-.812-.987-1.112zM2.647 17.556c.235-.857.893-1.608 1.738-2.074l-.658-5.351a8.288 8.288 0 0 0-2.036-4.374v11.784h.955v.015zm2.819 6.373c0-.812.125-1.548.298-2.3l-.783-.18c-1.143-.346-2.036-1.203-2.334-2.3h-.955v4.78h3.774zm3.712 0c0-.977-.783-1.834-1.801-1.954-.172.631-.298 1.263-.298 1.954h2.099zm0 1.623H7.314c.298 1.263.955 2.42 1.864 3.397v-3.397zm2.631-5.005c-.72-1.262-1.378-2.585-1.801-3.968-.423 1.383-1.081 2.706-1.801 3.968.72.165 1.316.631 1.801 1.157.486-.526 1.081-.992 1.801-1.157zm1.143 3.382c0-.691-.125-1.323-.297-1.954-1.018.12-1.801.977-1.801 1.954h2.099zm-.235 1.623h-1.864v3.397c.908-.992 1.566-2.134 1.864-3.397zm5.623-1.623v-4.78h-.955c-.298 1.097-1.206 1.954-2.334 2.3l-.783.18c.172.752.298 1.488.298 2.3h3.774zm0-6.373V5.757c-1.081 1.202-1.864 2.706-2.036 4.374l-.658 5.351c.846.466 1.504 1.203 1.739 2.074h.955z" style="fill:var(--color6,#fff)"/></symbol><symbol id="icon-lock" viewBox="0 0 32 32"><path stroke-linecap="round" stroke-linejoin="round" stroke-width="2.286" d="M22.667 14.667v-4a6.667 6.667 0 0 0-13.334 0v4M10.4 28h11.2c2.24 0 3.36 0 4.216-.436a3.991 3.991 0 0 0 1.748-1.748C28 24.96 28 23.84 28 21.6v-.533c0-2.24 0-3.36-.436-4.216a3.991 3.991 0 0 0-1.748-1.748c-.856-.436-1.976-.436-4.216-.436H10.4c-2.24 0-3.36 0-4.216.436a3.996 3.996 0 0 0-1.748 1.748C4 17.707 4 18.827 4 21.067v.533c0 2.24 0 3.36.436 4.216a3.991 3.991 0 0 0 1.748 1.748C7.04 28 8.16 28 10.4 28z"/></symbol><symbol id="icon-logo" viewBox="0 0 32 32"><path fill="#f6f6f6" d="m0 0 16.343 16.171L32 32V0H0z" style="fill:var(--color1,#f6f6f6)"/><path fill="#f6f6f6" d="M4.457 4.229 16.4 16.058l11.257 11.486h-23.2V4.23z" style="fill:var(--color1,#f6f6f6)"/><path fill="#4f2ee8" d="M27.733 27.618 15.79 15.789 4.533 4.303h23.2v23.314z" style="fill:var(--color2,#4f2ee8)"/><path fill="#4f2ee8" d="m9.257 9.029 13.6 13.6h-13.6v-13.6z" style="fill:var(--color2,#4f2ee8)"/><path fill="#f6f6f6" d="m9.257 9.029 13.6 13.6v-13.6h-13.6z" style="fill:var(--color1,#f6f6f6)"/></symbol><symbol id="icon-mail" viewBox="0 0 32 32"><path stroke-linecap="round" stroke-linejoin="round" stroke-width="2.286" d="m28.667 24-8.857-8m-7.619 0-8.857 8M2.667 9.333l10.886 7.621c.882.617 1.322.926 1.802 1.045.424.106.866.106 1.29 0 .479-.12.92-.428 1.802-1.045l10.887-7.621M9.067 26.667h13.867c2.24 0 3.36 0 4.216-.436a3.996 3.996 0 0 0 1.748-1.748c.436-.856.436-1.976.436-4.216v-8.533c0-2.24 0-3.36-.436-4.216A3.996 3.996 0 0 0 27.15 5.77c-.856-.436-1.976-.436-4.216-.436H9.067c-2.24 0-3.36 0-4.216.436a3.991 3.991 0 0 0-1.748 1.748c-.436.856-.436 1.976-.436 4.216v8.533c0 2.24 0 3.36.436 4.216a3.996 3.996 0 0 0 1.748 1.748c.856.436 1.976.436 4.216.436z"/></symbol><symbol id="icon-user" viewBox="0 0 32 32"><path fill="#f6f6f6" d="M32 16c0 8.837-7.163 16-16 16S0 24.837 0 16 7.163 0 16 0s16 7.163 16 16z" style="fill:var(--color1,#f6f6f6)"/><path fill="#4f2ee8" d="M10.523 22.847a5.477 5.477 0 1 1 10.954 0H10.522zM16 16.685c-2.27 0-4.108-1.838-4.108-4.108S13.73 8.469 16 8.469c2.27 0 4.108 1.838 4.108 4.108S18.27 16.685 16 16.685z" style="fill:var(--color2,#4f2ee8)"/></symbol><symbol id="icon-x-close" viewBox="0 0 32 32"><path stroke-linecap="round" stroke-linejoin="round" stroke-width="3.429" d="M24 8 8 24M8 8l16 16"/></symbol><symbol id="icon-arrow" viewBox="0 0 43 32"><path stroke-linecap="round" stroke-linejoin="round" stroke-width="5.333" d="M3.555 16h35.556m0 0L25.778 2.667M39.111 16 25.778 29.333"/></symbol><symbol id="icon-Bookshelf" viewBox="0 0 178 32"><path d="M22.176 8.533c0-4.731-3.497-7.406-9.545-7.406H0v29.417h13.33c6.089 0 9.998-2.921 9.998-8.599 0-4.402-2.633-6.665-5.719-7.2v-.082c2.427-.823 4.567-2.51 4.567-6.13zm-17.28 4.772V5.282h7.858c2.921 0 4.526 1.44 4.526 4.032s-1.317 3.991-4.814 3.991h-7.57zm0 3.662h8.599c3.086 0 4.937 1.687 4.937 4.69 0 2.757-1.275 4.731-5.472 4.731H4.896v-9.422zM35.89 31.161c-6.583 0-10.574-4.567-10.574-11.109S29.307 8.943 35.89 8.943s10.574 4.567 10.574 11.109-3.991 11.109-10.574 11.109zm0-3.538c4.114 0 6.254-3.25 6.254-7.57 0-4.361-2.139-7.57-6.254-7.57s-6.254 3.209-6.254 7.57c0 4.32 2.139 7.57 6.254 7.57zm23.022 3.538c-6.583 0-10.574-4.567-10.574-11.109S52.329 8.943 58.912 8.943s10.574 4.567 10.574 11.109-3.991 11.109-10.574 11.109zm0-3.538c4.114 0 6.254-3.25 6.254-7.57 0-4.361-2.139-7.57-6.254-7.57s-6.254 3.209-6.254 7.57c0 4.32 2.139 7.57 6.254 7.57zm13.56-26.496v29.417h4.32v-7.611l2.921-2.757 6.624 10.368h5.184l-8.846-13.207 7.982-7.817H85.35l-8.558 8.434V1.127h-4.32zm29.463 16.704c-3.045-.699-5.39-.864-5.39-3.003 0-1.481 1.399-2.469 3.991-2.469 3.374 0 4.197 1.687 4.485 3.333h4.197c-.288-3.662-3.003-6.747-8.722-6.747-5.266 0-8.311 2.757-8.311 6.213 0 4.773 4.526 5.431 7.858 6.213 3.086.741 5.595.946 5.595 3.579 0 1.317-1.275 2.798-4.279 2.798-4.443 0-5.431-1.934-5.637-4.197h-4.197c.206 4.443 3.127 7.611 9.915 7.611 5.102 0 8.558-2.51 8.558-6.542 0-5.019-4.197-5.883-8.064-6.789zm22.188-8.887c-3.538 0-5.719 1.646-6.83 3.291h-.082V1.126h-4.32v29.417h4.32V17.748c0-3.127 2.263-5.143 5.431-5.143 3.003 0 4.197 1.81 4.197 4.649v13.289h4.361V16.02c0-4.814-3.086-7.077-7.077-7.077zm20.325 18.679c-3.826 0-6.089-2.921-6.089-6.459h16.128c0-7.488-3.333-12.219-10.121-12.219-6.336 0-10.327 4.279-10.327 11.109 0 6.583 3.991 11.109 10.533 11.109 5.39 0 8.517-3.045 9.586-7.035h-4.32c-.37 1.275-1.81 3.497-5.39 3.497zm-.082-15.264c3.497 0 5.801 2.345 5.801 5.595h-11.808c0-3.25 2.51-5.595 6.007-5.595zm13.165-11.232v29.417h4.361V1.127h-4.361zm18.472 3.538V1.127a15.12 15.12 0 0 0-2.88-.288c-3.456 0-5.349 1.563-5.349 6.007V9.52h-3.003v3.538h3.003v17.486h4.361V13.058h3.867V9.52h-3.867V7.216c0-2.386 1.07-2.674 3.867-2.551z"/></symbol><symbol id="icon-uil_cart" viewBox="0 0 32 32"><path d="M25.333 9.333h-4V8a5.332 5.332 0 1 0-10.666 0v1.333h-4a1.335 1.335 0 0 0-1.334 1.334v14.667a4.003 4.003 0 0 0 4 4h13.333a4.003 4.003 0 0 0 4-4V10.667a1.335 1.335 0 0 0-1.334-1.334zM13.333 8a2.668 2.668 0 0 1 5.334 0v1.333h-5.333V8zM24 25.333a1.335 1.335 0 0 1-1.334 1.334H9.333a1.335 1.335 0 0 1-1.334-1.334V12h2.667v1.333a1.335 1.335 0 0 0 2.277.943c.25-.251.391-.589.391-.943V12h5.333v1.333a1.333 1.333 0 1 0 2.667 0V12h2.667v13.333z"/></symbol><symbol id="icon-logo" viewBox="0 0 32 32"><path fill="#f6f6f6" d="m0 0 16.343 16.171L32 32V0H0z" style="fill:var(--color1,#f6f6f6)"/><path fill="#f6f6f6" d="M4.457 4.229 16.4 16.058l11.257 11.486h-23.2V4.23z" style="fill:var(--color1,#f6f6f6)"/><path fill="#4f2ee8" d="M27.733 27.618 15.79 15.789 4.533 4.303h23.2v23.314z" style="fill:var(--color2,#4f2ee8)"/><path fill="#4f2ee8" d="m9.257 9.029 13.6 13.6h-13.6v-13.6z" style="fill:var(--color2,#4f2ee8)"/><path fill="#f6f6f6" d="m9.257 9.029 13.6 13.6v-13.6h-13.6z" style="fill:var(--color1,#f6f6f6)"/></symbol><symbol id="icon-user-fill" viewBox="0 0 32 32"><path fill="#4f2ee8" d="M5.333 29.333a10.666 10.666 0 0 1 21.332 0H5.332zm10.667-12c-4.42 0-8-3.58-8-8s3.58-8 8-8 8 3.58 8 8-3.58 8-8 8z" style="fill:var(--color2,#4f2ee8)"/></symbol><symbol id="icon-arr-down" viewBox="0 0 60 32"><path fill="#fff" d="M3.167 3h53.667L32.711 30.27c-.719.812-1.694 1.269-2.71 1.269s-1.991-.456-2.71-1.269L3.168 3z" style="fill:var(--color3,#fff)"/></symbol><symbol id="icon-burger-meny" viewBox="0 0 32 32"><path stroke-linecap="round" stroke-linejoin="round" stroke-width="2.286" d="M22.667 13.333H4M28 8H4m24 10.667H4M22.667 24H4"/></symbol><symbol id="close-btn-icon" viewBox="0 0 32 32"><path stroke-linecap="round" stroke-linejoin="round" stroke-width="5.333" d="M28.444 3.556 3.555 28.445m.001-24.889 24.889 24.889"/></symbol><symbol id="icon-angle" viewBox="0 0 32 32"><path fill="#4f2ee8" style="fill:var(--color1,#4f2ee8)" d="M15.053 17.867a1.334 1.334 0 0 0 1.894 0l6.107-6.12a1.334 1.334 0 1 1 1.894 1.88l-6.12 6.12a4.001 4.001 0 0 1-5.654 0l-6.12-6.12a1.337 1.337 0 0 1 .434-2.172 1.331 1.331 0 0 1 1.46.292l6.107 6.12z"/></symbol><symbol id="icon-settings-3" viewBox="0 0 42 32"><path d="M3.692 21.72c.176.042.415.259.484.457l.35.844c.079.162.064.483-.03.637l-1.397 2.284c-.299.49-.237 1.184.165 1.634l1.183 1.182c.412.366 1.139.432 1.613.145l2.284-1.397c.143-.088.45-.119.665-.018l.843.348c.17.059.387.297.429.473l.627 2.604c.133.552.66 1.006 1.226 1.058 0 0 .347.032.867.032s.867-.032.868-.032a1.444 1.444 0 0 0 1.225-1.058l.628-2.604c.042-.175.258-.414.456-.483l.844-.35c.149-.073.494-.058.637.03l2.284 1.397c.201.123.441.188.696.188.345 0 .679-.121.938-.352l1.182-1.183a1.407 1.407 0 0 0 .145-1.613l-1.397-2.284c-.094-.154-.109-.475-.018-.665l.348-.843c.059-.17.297-.387.473-.429l2.604-.627a1.446 1.446 0 0 0 1.058-1.226s.032-.347.032-.867-.032-.867-.032-.868a1.447 1.447 0 0 0-1.058-1.226l-2.603-.626c-.176-.042-.415-.259-.484-.457l-.35-.844c-.079-.162-.064-.483.03-.637l1.397-2.284c.299-.49.237-1.184-.165-1.634l-1.183-1.182c-.413-.367-1.141-.433-1.613-.145l-2.284 1.397c-.143.087-.451.12-.665.018l-.843-.348c-.17-.059-.386-.297-.428-.473l-.628-2.604a1.446 1.446 0 0 0-1.226-1.058C13.867 6.032 13.52 6 13 6s-.867.032-.868.032a1.447 1.447 0 0 0-1.226 1.058l-.626 2.602c-.042.176-.259.415-.457.484l-.844.35c-.15.073-.494.057-.637-.03L6.059 9.099c-.473-.288-1.185-.238-1.634.164l-1.182 1.183a1.407 1.407 0 0 0-.145 1.613l1.397 2.284c.094.154.109.475.018.665l-.348.843c-.059.17-.297.387-.473.429l-2.604.627A1.446 1.446 0 0 0 .03 18.133c.002 0-.03.347-.03.867s.032.867.032.868a1.447 1.447 0 0 0 1.058 1.226l2.602.626zM1 19c0-.458.027-.767.028-.777a.466.466 0 0 1 .296-.344l2.604-.627c.505-.122 1.014-.584 1.172-1.047l.324-.787c.228-.467.196-1.153-.075-1.597l-1.397-2.283c-.067-.111-.048-.331.018-.406L5.111 9.99c.091-.081.323-.101.427-.038l2.284 1.397c.433.265 1.175.283 1.568.088l.788-.326c.491-.169.953-.678 1.075-1.184l.626-2.603a.465.465 0 0 1 .344-.297c.01 0 .319-.027.777-.027s.767.027.777.028a.466.466 0 0 1 .344.296l.627 2.603c.122.505.583 1.015 1.047 1.173l.787.324c.457.224 1.165.189 1.597-.075l2.283-1.397c.104-.063.35-.03.406.018l1.142 1.141c.086.097.105.316.038.427l-1.397 2.284c-.271.443-.303 1.13-.088 1.568l.326.788c.169.491.678.953 1.184 1.075l2.603.626a.465.465 0 0 1 .297.344c0 .01.027.319.027.777s-.027.767-.028.777a.466.466 0 0 1-.296.344l-2.604.627c-.505.122-1.014.584-1.172 1.047l-.324.787c-.228.467-.196 1.153.075 1.597l1.397 2.283c.067.111.048.331-.018.406l-1.141 1.142a.398.398 0 0 1-.251.079.346.346 0 0 1-.175-.041l-2.284-1.397c-.432-.264-1.174-.283-1.568-.088l-.788.326c-.491.169-.953.679-1.074 1.184l-.627 2.603a.465.465 0 0 1-.344.297c-.011 0-.32.027-.778.027s-.767-.027-.777-.028a.466.466 0 0 1-.344-.296l-.627-2.604c-.122-.505-.584-1.014-1.047-1.172l-.787-.324a1.633 1.633 0 0 0-.715-.152c-.329 0-.642.081-.882.228l-2.283 1.397c-.104.063-.351.029-.406-.018L3.99 26.889c-.086-.097-.105-.316-.038-.427l1.397-2.284c.271-.443.303-1.13.088-1.568l-.326-.788c-.169-.491-.678-.953-1.184-1.075l-2.603-.626a.465.465 0 0 1-.297-.344c0-.01-.027-.319-.027-.777zm12 5.5c3.033 0 5.5-2.467 5.5-5.5s-2.467-5.5-5.5-5.5-5.5 2.467-5.5 5.5 2.467 5.5 5.5 5.5zm0-10c2.481 0 4.5 2.019 4.5 4.5s-2.019 4.5-4.5 4.5-4.5-2.019-4.5-4.5 2.019-4.5 4.5-4.5zm14.477-9.186a.424.424 0 0 1-.259.138l-1.861-.018a1.16 1.16 0 0 0-1.053.746s-.082.233-.172.59-.128.601-.128.601c-.07.451.181.95.584 1.161l1.641.86a.435.435 0 0 1 .166.273l.093.635a.426.426 0 0 1-.084.28l-1.322 1.296c-.331.324-.418.878-.19 1.313l.599 1c.253.372.801.562 1.231.428l1.824-.558c.099 0 .198.038.254.083l.515.38a.43.43 0 0 1 .138.259l-.018 1.852c-.004.456.316.913.746 1.063 0 0 .233.082.59.172s.601.128.601.128c.026.004.13.012.156.012a1.17 1.17 0 0 0 1.005-.596l.86-1.641a.435.435 0 0 1 .273-.166l.663-.096c.1 0 .218.052.251.086l1.296 1.322c.315.322.846.437 1.313.19l.999-.599c.382-.26.567-.79.429-1.231l-.552-1.767a.433.433 0 0 1 .078-.311l.38-.515a.424.424 0 0 1 .259-.138l1.861.018a1.16 1.16 0 0 0 1.053-.746s.082-.233.172-.59.128-.601.128-.601a1.16 1.16 0 0 0-.584-1.161l-1.641-.86a.435.435 0 0 1-.166-.273l-.092-.633a.426.426 0 0 1 .084-.28l1.322-1.296c.331-.324.418-.878.19-1.313l-.599-1c-.253-.371-.8-.563-1.231-.429l-1.825.558a.432.432 0 0 1-.254-.083l-.515-.38a.43.43 0 0 1-.138-.259l.018-1.852a1.158 1.158 0 0 0-.746-1.063s-.233-.082-.59-.172-.601-.128-.601-.128a2.725 2.725 0 0 0-.156-.011 1.17 1.17 0 0 0-1.005.596l-.86 1.641a.435.435 0 0 1-.273.166l-.663.095a.437.437 0 0 1-.251-.086l-1.296-1.322a1.112 1.112 0 0 0-1.313-.19l-1 .598c-.382.26-.567.79-.429 1.231l.552 1.767a.433.433 0 0 1-.078.311l-.379.515zm.82.572.343-.466c.268-.317.372-.834.248-1.229l-.551-1.766c-.005-.028.017-.091.012-.092l.948-.568.113.017 1.297 1.322c.23.234.609.386.965.386a.945.945 0 0 0 .204-.019l.575-.085a1.393 1.393 0 0 0 1.043-.694l.859-1.64a.185.185 0 0 1 .12-.061c.011.001.215.035.513.109s.493.142.502.146c.031.013.076.078.078.11l-.018 1.852c-.004.414.245.879.567 1.089l.465.343c.309.261.839.371 1.229.248l1.774-.552c.042 0 .089.026.083.013l.568.948c.011.026 0 .092-.017.113l-1.322 1.297c-.295.291-.448.795-.367 1.169l.084.575c.036.412.328.851.695 1.043l1.64.859a.189.189 0 0 1 .061.12c-.001.011-.035.215-.109.513s-.142.493-.146.502c-.013.031-.078.076-.11.078l-1.862-.018c-.411 0-.871.249-1.079.567l-.342.465a1.386 1.386 0 0 0-.248 1.229l.551 1.766c.005.027-.017.091-.012.092l-.948.568-.113-.017-1.297-1.322c-.23-.234-.609-.386-.965-.386a.945.945 0 0 0-.204.019l-.575.085a1.393 1.393 0 0 0-1.043.694l-.859 1.64a.185.185 0 0 1-.12.061 6.405 6.405 0 0 1-.513-.109 6.095 6.095 0 0 1-.502-.146c-.031-.013-.076-.078-.078-.11l.018-1.852c.004-.414-.245-.879-.567-1.089l-.465-.343a1.387 1.387 0 0 0-1.23-.248l-1.774.552c-.043 0-.09-.023-.083-.013l-.568-.948c-.011-.026 0-.092.017-.113l1.322-1.297c.295-.291.448-.795.367-1.169l-.084-.574a1.392 1.392 0 0 0-.695-1.043l-1.64-.859a.189.189 0 0 1-.061-.12c.001-.011.035-.215.109-.513.075-.297.142-.493.146-.502.013-.031.078-.076.11-.078l1.862.018c.411 0 .871-.249 1.079-.567zM33 12c1.654 0 3-1.346 3-3s-1.346-3-3-3-3 1.346-3 3 1.346 3 3 3zm0-5c1.103 0 2 .897 2 2s-.897 2-2 2-2-.897-2-2 .897-2 2-2z"/></symbol><symbol id="icon-settings-4" viewBox="0 0 32 32"><path d="m30.391 12.68-3.064-.614a12.098 12.098 0 0 0-.537-1.289l1.736-2.604a1.999 1.999 0 0 0-.25-2.523l-1.924-1.924a1.996 1.996 0 0 0-2.523-.25l-2.604 1.735a12.09 12.09 0 0 0-1.291-.536L19.32 1.61A1.998 1.998 0 0 0 17.359.002h-2.72a2 2 0 0 0-1.961 1.608l-.614 3.065c-.443.154-.873.335-1.289.536L8.172 3.476a1.996 1.996 0 0 0-2.524.25L3.725 5.65a2 2 0 0 0-.25 2.523l1.735 2.604c-.202.417-.382.847-.536 1.29l-3.066.613A2 2 0 0 0 0 14.641v2.72a2 2 0 0 0 1.608 1.961l3.065.615c.154.443.335.873.536 1.289L3.475 23.83a1.999 1.999 0 0 0 .25 2.523l1.924 1.924a1.996 1.996 0 0 0 2.523.25l2.604-1.736c.417.203.847.383 1.29.537l.613 3.064a2 2 0 0 0 1.961 1.609h2.72a2 2 0 0 0 1.961-1.609l.615-3.064c.443-.154.873-.336 1.289-.537l2.604 1.736a1.998 1.998 0 0 0 2.523-.25l1.924-1.924a2 2 0 0 0 .25-2.523l-1.736-2.604c.203-.418.383-.848.537-1.291l3.064-.613A2 2 0 0 0 32 17.361v-2.72c0-.953-.674-1.774-1.609-1.961zm-3.457 5.295a1.997 1.997 0 0 0-1.496 1.305c-.129.369-.279.727-.447 1.074a1.996 1.996 0 0 0 .135 1.982l1.736 2.604-1.924 1.924-2.604-1.736a1.997 1.997 0 0 0-1.98-.137c-.348.168-.705.32-1.076.449a1.998 1.998 0 0 0-1.303 1.496l-.615 3.066h-2.72l-.613-3.066a1.997 1.997 0 0 0-1.304-1.496 10.17 10.17 0 0 1-1.075-.447 1.994 1.994 0 0 0-1.981.135l-2.604 1.736-1.924-1.924 1.735-2.604c.393-.59.444-1.344.137-1.98a10.106 10.106 0 0 1-.448-1.076 2 2 0 0 0-1.496-1.303l-3.065-.615L2 14.641l3.066-.613a1.999 1.999 0 0 0 1.496-1.304c.129-.369.278-.728.447-1.075a1.995 1.995 0 0 0-.136-1.981L5.139 7.064 7.062 5.14l2.604 1.735a1.997 1.997 0 0 0 1.98.137 10.09 10.09 0 0 1 1.075-.448 1.999 1.999 0 0 0 1.304-1.496l.614-3.065 2.72-.001.613 3.066a1.998 1.998 0 0 0 1.305 1.496c.369.129.727.278 1.074.447a1.998 1.998 0 0 0 1.982-.136l2.604-1.735 1.924 1.924-1.736 2.604a2.006 2.006 0 0 0-.137 1.98c.168.347.32.705.449 1.075a1.997 1.997 0 0 0 1.496 1.304l3.064.614.003 2.72-3.066.614zM16 9.001A7 7 0 1 0 16.001 23 7 7 0 0 0 16 9zm0 13.126c-3.382 0-6.125-2.744-6.125-6.125S12.618 9.877 16 9.877a6.127 6.127 0 0 1 6.125 6.125A6.127 6.127 0 0 1 16 22.127zm0-10.126c-2.21 0-4 1.79-4 4s1.79 4 4 4a4 4 0 0 0 0-8zm0 7.001a3.001 3.001 0 0 1 0-6 3.001 3.001 0 0 1 0 6z"/></symbol><symbol id="icon-settings-1" viewBox="0 0 32 32"><path d="M29.181 19.07c-1.679-2.908-.669-6.634 2.255-8.328l-3.145-5.447a6.022 6.022 0 0 1-3.058.829c-3.361 0-6.085-2.742-6.085-6.125h-6.289a6.023 6.023 0 0 1-.811 3.07C10.369 5.977 6.637 6.966 3.709 5.28L.565 10.727a6.023 6.023 0 0 1 2.246 2.234c1.676 2.903.672 6.623-2.241 8.319l3.145 5.447a6.022 6.022 0 0 1 3.044-.82c3.35 0 6.067 2.725 6.084 6.092h6.289a6.032 6.032 0 0 1 .811-3.038c1.676-2.903 5.399-3.894 8.325-2.219l3.145-5.447a6.032 6.032 0 0 1-2.232-2.226zM16 22.479A6.48 6.48 0 1 1 16 9.52a6.48 6.48 0 0 1 0 12.959z"/></symbol><symbol id="icon-settings-2" viewBox="0 0 32 32"><path d="m11.366 22.564 1.291-1.807-1.414-1.414-1.807 1.291a4.996 4.996 0 0 0-1.071-.444L8 18H6l-.365 2.19a4.946 4.946 0 0 0-1.071.444l-1.807-1.291-1.414 1.414 1.291 1.807a4.943 4.943 0 0 0-.443 1.071L.001 24v2l2.19.365c.107.377.256.736.444 1.071l-1.291 1.807 1.414 1.414 1.807-1.291c.335.187.694.337 1.071.444L6.001 32h2l.365-2.19a4.946 4.946 0 0 0 1.071-.444l1.807 1.291 1.414-1.414-1.291-1.807c.187-.335.337-.694.444-1.071l2.19-.365v-2l-2.19-.365a4.946 4.946 0 0 0-.444-1.071zM7 27a2 2 0 1 1-.001-3.999A2 2 0 0 1 7 27zm25-15v-2l-2.106-.383a8.715 8.715 0 0 0-.148-.743l1.799-1.159-.765-1.848-2.092.452a8.957 8.957 0 0 0-.422-.629l1.219-1.761-1.414-1.414-1.761 1.219a8.957 8.957 0 0 0-.629-.422l.452-2.092-1.848-.765-1.159 1.799a9.122 9.122 0 0 0-.743-.148L22 0h-2l-.383 2.106a8.715 8.715 0 0 0-.743.148L17.715.455l-1.848.765.452 2.092a8.957 8.957 0 0 0-.629.422l-1.761-1.219-1.414 1.414 1.219 1.761c-.149.203-.29.413-.422.629l-2.092-.452-.765 1.848 1.799 1.159a9.122 9.122 0 0 0-.148.743L10 10v2l2.106.383c.039.251.088.499.148.743l-1.799 1.159.765 1.848 2.092-.452c.132.216.273.426.422.629l-1.219 1.761 1.414 1.414 1.761-1.219c.203.149.413.29.629.422l-.452 2.092 1.848.765 1.159-1.799c.244.059.492.109.743.148L20 22h2l.383-2.106c.251-.039.499-.088.743-.148l1.159 1.799 1.848-.765-.452-2.092c.216-.132.426-.273.629-.422l1.761 1.219 1.414-1.414-1.219-1.761c.149-.203.29-.413.422-.629l2.092.452.765-1.848-1.799-1.159c.059-.244.109-.492.148-.743L32 12zm-11 3.35a4.35 4.35 0 1 1 .001-8.701A4.35 4.35 0 0 1 21 15.35z"/></symbol></defs></svg>