<svg width="38" height="38" viewBox="0 0 38 38" fill="none" xmlns="http://www.w3.org/2000/svg">
<ellipse cx="19" cy="19" rx="19" ry="19" transform="rotate(90 19 19)" fill="white"/>
<path d="M18.3491 20.2834C18.4344 20.3693 18.5357 20.4375 18.6475 20.484C18.7592 20.5306 18.879 20.5545 19 20.5545C19.121 20.5545 19.2408 20.5306 19.3525 20.484C19.4642 20.4375 19.5656 20.3693 19.6508 20.2834L23.8492 16.0759C23.9344 15.99 24.0358 15.9218 24.1475 15.8752C24.2592 15.8287 24.379 15.8047 24.5 15.8047C24.621 15.8047 24.7408 15.8287 24.8525 15.8752C24.9642 15.9218 25.0656 15.99 25.1508 16.0759C25.3216 16.2476 25.4174 16.48 25.4174 16.7221C25.4174 16.9643 25.3216 17.1966 25.1508 17.3684L20.9433 21.5759C20.4277 22.0909 19.7287 22.3801 19 22.3801C18.2712 22.3801 17.5723 22.0909 17.0566 21.5759L12.8491 17.3684C12.6798 17.1976 12.5843 16.9672 12.5833 16.7267C12.5826 16.6061 12.6057 16.4865 12.6513 16.3748C12.697 16.2631 12.7642 16.1615 12.8491 16.0759C12.9344 15.99 13.0357 15.9218 13.1474 15.8752C13.2591 15.8287 13.379 15.8047 13.5 15.8047C13.621 15.8047 13.7408 15.8287 13.8525 15.8752C13.9642 15.9218 14.0656 15.99 14.1508 16.0759L18.3491 20.2834Z" fill="#4F2EE8"/>
</svg>
